<?xml version="1.0" encoding="utf-8"?>
<!-- Generator: Adobe Illustrator 24.2.0, SVG Export Plug-In . SVG Version: 6.00 Build 0)  -->
<svg version="1.1" id="Layer_1" xmlns="http://www.w3.org/2000/svg" xmlns:xlink="http://www.w3.org/1999/xlink" x="0px" y="0px"
	 viewBox="0 0 858.3 896" style="enable-background:new 0 0 858.3 896;" xml:space="preserve">
<style type="text/css">
	.st0{fill-rule:evenodd;clip-rule:evenodd;fill:#F2D43A;}
</style>
<path class="st0" d="M660.5,410c-15.6,9.5-31.2,17.4-47.2,23.9c-15.9,6.4-32.1,11.5-48.4,14.8c31.9,5.1,63.7,17.7,95.6,37.6
	l197.8,117.6l-82.7,140.9L577.8,627.1c-15.6-9.5-30.2-19.1-44-29.1c-13.8-9.9-25.9-20.8-36.2-32.9c10.3,30.2,15.5,62.9,15.5,98.3
	V896H343.8V665.9c0-17.3,1.1-34.3,3.3-51.1c2.1-16.8,5.8-32.5,11-47.1c-19.9,22.4-45.8,42.2-77.6,59.4L84.1,742.2L0,601.2l197.8-115
	c16.3-9.6,32.5-17.5,48.5-24c15.9-6.4,32.1-10.9,48.4-13.6c-16.3-2.5-32.7-7.3-49-14.2c-16.4-6.8-32.4-15-47.9-24.5L0,292.2
	l82.7-139.6l197.8,117.6c31.9,17.2,58.2,37.5,78.9,60.8c-10.3-29.2-15.6-61.6-15.6-97V0.1h169.4v231.4c0,17.3-1.1,34.2-3.3,51
	c-2.1,16.8-5.8,32.5-10.9,47.2c10.3-12.1,22.2-22.8,35.5-32.4c13.4-9.5,27.8-18.5,43.3-27.1l196.4-115l84,139.6L660.5,410z"/>
</svg>
